<svg width="30" height="30" viewBox="0 0 30 30" fill="none" xmlns="http://www.w3.org/2000/svg">
<g id="add_circle">
<mask id="mask0_411_11107" style="mask-type:alpha" maskUnits="userSpaceOnUse" x="0" y="0" width="30" height="30">
<rect id="Bounding box" width="30" height="30" fill="#D9D9D9"/>
</mask>
<g mask="url(#mask0_411_11107)">
<path id="add_circle_2" d="M13.75 21.2488H16.25V16.2488H21.25V13.7488H16.25V8.74878H13.75V13.7488H8.75V16.2488H13.75V21.2488ZM15 27.4988C13.2708 27.4988 11.6458 27.1707 10.125 26.5144C8.60417 25.8582 7.28125 24.9675 6.15625 23.8425C5.03125 22.7175 4.14063 21.3946 3.48438 19.8738C2.82812 18.3529 2.5 16.7279 2.5 14.9988C2.5 13.2696 2.82812 11.6446 3.48438 10.1238C4.14063 8.60295 5.03125 7.28003 6.15625 6.15503C7.28125 5.03003 8.60417 4.1394 10.125 3.48315C11.6458 2.8269 13.2708 2.49878 15 2.49878C16.7292 2.49878 18.3542 2.8269 19.875 3.48315C21.3958 4.1394 22.7188 5.03003 23.8438 6.15503C24.9688 7.28003 25.8594 8.60295 26.5156 10.1238C27.1719 11.6446 27.5 13.2696 27.5 14.9988C27.5 16.7279 27.1719 18.3529 26.5156 19.8738C25.8594 21.3946 24.9688 22.7175 23.8438 23.8425C22.7188 24.9675 21.3958 25.8582 19.875 26.5144C18.3542 27.1707 16.7292 27.4988 15 27.4988ZM15 24.9988C17.7917 24.9988 20.1562 24.03 22.0938 22.0925C24.0312 20.155 25 17.7904 25 14.9988C25 12.2071 24.0312 9.84253 22.0938 7.90503C20.1562 5.96753 17.7917 4.99878 15 4.99878C12.2083 4.99878 9.84375 5.96753 7.90625 7.90503C5.96875 9.84253 5 12.2071 5 14.9988C5 17.7904 5.96875 20.155 7.90625 22.0925C9.84375 24.03 12.2083 24.9988 15 24.9988Z" fill="#1C1B1F"/>
</g>
</g>
</svg>
