<svg width="30" height="30" viewBox="0 0 30 30" fill="none" xmlns="http://www.w3.org/2000/svg">
<g id="calendar_month">
<mask id="mask0_656_14453" style="mask-type:alpha" maskUnits="userSpaceOnUse" x="0" y="0" width="30" height="30">
<rect id="Bounding box" width="30" height="30" fill="#D9D9D9"/>
</mask>
<g mask="url(#mask0_656_14453)">
<path id="calendar_month_2" d="M6.25 27.499C5.5625 27.499 4.97396 27.2542 4.48438 26.7646C3.99479 26.2751 3.75 25.6865 3.75 24.999V7.49902C3.75 6.81152 3.99479 6.22298 4.48438 5.7334C4.97396 5.24382 5.5625 4.99902 6.25 4.99902H7.5V2.49902H10V4.99902H20V2.49902H22.5V4.99902H23.75C24.4375 4.99902 25.026 5.24382 25.5156 5.7334C26.0052 6.22298 26.25 6.81152 26.25 7.49902V24.999C26.25 25.6865 26.0052 26.2751 25.5156 26.7646C25.026 27.2542 24.4375 27.499 23.75 27.499H6.25ZM6.25 24.999H23.75V12.499H6.25V24.999ZM6.25 9.99902H23.75V7.49902H6.25V9.99902ZM15 17.499C14.6458 17.499 14.349 17.3792 14.1094 17.1396C13.8698 16.9001 13.75 16.6032 13.75 16.249C13.75 15.8949 13.8698 15.598 14.1094 15.3584C14.349 15.1188 14.6458 14.999 15 14.999C15.3542 14.999 15.651 15.1188 15.8906 15.3584C16.1302 15.598 16.25 15.8949 16.25 16.249C16.25 16.6032 16.1302 16.9001 15.8906 17.1396C15.651 17.3792 15.3542 17.499 15 17.499ZM10 17.499C9.64583 17.499 9.34896 17.3792 9.10938 17.1396C8.86979 16.9001 8.75 16.6032 8.75 16.249C8.75 15.8949 8.86979 15.598 9.10938 15.3584C9.34896 15.1188 9.64583 14.999 10 14.999C10.3542 14.999 10.651 15.1188 10.8906 15.3584C11.1302 15.598 11.25 15.8949 11.25 16.249C11.25 16.6032 11.1302 16.9001 10.8906 17.1396C10.651 17.3792 10.3542 17.499 10 17.499ZM20 17.499C19.6458 17.499 19.349 17.3792 19.1094 17.1396C18.8698 16.9001 18.75 16.6032 18.75 16.249C18.75 15.8949 18.8698 15.598 19.1094 15.3584C19.349 15.1188 19.6458 14.999 20 14.999C20.3542 14.999 20.651 15.1188 20.8906 15.3584C21.1302 15.598 21.25 15.8949 21.25 16.249C21.25 16.6032 21.1302 16.9001 20.8906 17.1396C20.651 17.3792 20.3542 17.499 20 17.499ZM15 22.499C14.6458 22.499 14.349 22.3792 14.1094 22.1396C13.8698 21.9001 13.75 21.6032 13.75 21.249C13.75 20.8949 13.8698 20.598 14.1094 20.3584C14.349 20.1188 14.6458 19.999 15 19.999C15.3542 19.999 15.651 20.1188 15.8906 20.3584C16.1302 20.598 16.25 20.8949 16.25 21.249C16.25 21.6032 16.1302 21.9001 15.8906 22.1396C15.651 22.3792 15.3542 22.499 15 22.499ZM10 22.499C9.64583 22.499 9.34896 22.3792 9.10938 22.1396C8.86979 21.9001 8.75 21.6032 8.75 21.249C8.75 20.8949 8.86979 20.598 9.10938 20.3584C9.34896 20.1188 9.64583 19.999 10 19.999C10.3542 19.999 10.651 20.1188 10.8906 20.3584C11.1302 20.598 11.25 20.8949 11.25 21.249C11.25 21.6032 11.1302 21.9001 10.8906 22.1396C10.651 22.3792 10.3542 22.499 10 22.499ZM20 22.499C19.6458 22.499 19.349 22.3792 19.1094 22.1396C18.8698 21.9001 18.75 21.6032 18.75 21.249C18.75 20.8949 18.8698 20.598 19.1094 20.3584C19.349 20.1188 19.6458 19.999 20 19.999C20.3542 19.999 20.651 20.1188 20.8906 20.3584C21.1302 20.598 21.25 20.8949 21.25 21.249C21.25 21.6032 21.1302 21.9001 20.8906 22.1396C20.651 22.3792 20.3542 22.499 20 22.499Z" fill="#1C1B1F"/>
</g>
</g>
</svg>
