<svg width="30" height="30" viewBox="0 0 30 30" fill="none" xmlns="http://www.w3.org/2000/svg">
<g id="mdi:eye-off-outline">
<path id="Vector" d="M2.5 6.5875L4.1 5L25 25.9L23.4125 27.5L19.5625 23.65C18.125 24.125 16.6 24.375 15 24.375C8.75 24.375 3.4125 20.4875 1.25 15C2.1125 12.8 3.4875 10.8625 5.2375 9.325L2.5 6.5875ZM15 11.25C15.9946 11.25 16.9484 11.6451 17.6516 12.3483C18.3549 13.0516 18.75 14.0054 18.75 15C18.7506 15.4257 18.6788 15.8484 18.5375 16.25L13.75 11.4625C14.1516 11.3212 14.5743 11.2494 15 11.25ZM15 5.625C21.25 5.625 26.5875 9.5125 28.75 15C27.7292 17.5912 25.9957 19.8404 23.75 21.4875L21.975 19.7C23.7037 18.5043 25.0979 16.8864 26.025 15C25.0146 12.9373 23.4457 11.1995 21.4967 9.98419C19.5477 8.76884 17.2969 8.1247 15 8.125C13.6375 8.125 12.3 8.35 11.05 8.75L9.125 6.8375C10.925 6.0625 12.9125 5.625 15 5.625ZM3.975 15C4.98543 17.0627 6.55432 18.8005 8.50329 20.0158C10.4523 21.2312 12.7031 21.8753 15 21.875C15.8625 21.875 16.7125 21.7875 17.5 21.6125L14.65 18.75C13.7802 18.6568 12.9685 18.2686 12.35 17.65C11.7314 17.0315 11.3432 16.2198 11.25 15.35L7 11.0875C5.7625 12.15 4.725 13.475 3.975 15Z" fill="black"/>
</g>
</svg>
