<svg width="50" height="50" viewBox="0 0 50 50" fill="none" xmlns="http://www.w3.org/2000/svg">
<g id="fluent:save-16-regular">
<path id="Vector" d="M12.5 9.375C11.6712 9.375 10.8763 9.70424 10.2903 10.2903C9.70424 10.8763 9.375 11.6712 9.375 12.5V37.5C9.375 38.3288 9.70424 39.1237 10.2903 39.7097C10.8763 40.2958 11.6712 40.625 12.5 40.625V29.6875C12.5 28.4443 12.9939 27.252 13.8729 26.3729C14.752 25.4939 15.9443 25 17.1875 25H32.8125C34.0557 25 35.248 25.4939 36.1271 26.3729C37.0061 27.252 37.5 28.4443 37.5 29.6875V40.625C38.3288 40.625 39.1237 40.2958 39.7097 39.7097C40.2958 39.1237 40.625 38.3288 40.625 37.5V17.5656C40.6248 16.7369 40.2955 15.9422 39.7094 15.3562L34.6438 10.2906C34.0578 9.70453 33.2631 9.37518 32.4344 9.375H31.25V14.0625C31.25 15.3057 30.7561 16.498 29.8771 17.3771C28.998 18.2561 27.8057 18.75 26.5625 18.75H20.3125C19.0693 18.75 17.877 18.2561 16.9979 17.3771C16.1189 16.498 15.625 15.3057 15.625 14.0625V9.375H12.5ZM18.75 9.375V14.0625C18.75 14.4769 18.9146 14.8743 19.2076 15.1674C19.5007 15.4604 19.8981 15.625 20.3125 15.625H26.5625C26.9769 15.625 27.3743 15.4604 27.6674 15.1674C27.9604 14.8743 28.125 14.4769 28.125 14.0625V9.375H18.75ZM34.375 40.625V29.6875C34.375 29.2731 34.2104 28.8757 33.9174 28.5826C33.6243 28.2896 33.2269 28.125 32.8125 28.125H17.1875C16.7731 28.125 16.3757 28.2896 16.0826 28.5826C15.7896 28.8757 15.625 29.2731 15.625 29.6875V40.625H34.375ZM6.25 12.5C6.25 10.8424 6.90848 9.25268 8.08058 8.08058C9.25268 6.90848 10.8424 6.25 12.5 6.25H32.4344C34.0918 6.25035 35.6813 6.90907 36.8531 8.08125L41.9187 13.1469C43.0909 14.3187 43.7496 15.9082 43.75 17.5656V37.5C43.75 39.1576 43.0915 40.7473 41.9194 41.9194C40.7473 43.0915 39.1576 43.75 37.5 43.75H12.5C10.8424 43.75 9.25268 43.0915 8.08058 41.9194C6.90848 40.7473 6.25 39.1576 6.25 37.5V12.5Z" fill="black"/>
</g>
</svg>
