<svg width="22" height="24" viewBox="0 0 22 24" fill="none" xmlns="http://www.w3.org/2000/svg">
<g id="Group 9">
<path id="Vector" d="M19 8.86719H10C8.89543 8.86719 8 9.77847 8 10.9026V20.0619C8 21.186 8.89543 22.0973 10 22.0973H19C20.1046 22.0973 21 21.186 21 20.0619V10.9026C21 9.77847 20.1046 8.86719 19 8.86719Z" stroke="#222222" stroke-width="2" stroke-linecap="round" stroke-linejoin="round"/>
<path id="Vector_2" d="M4 14.9733H3C2.46957 14.9733 1.96086 14.7588 1.58579 14.3771C1.21071 13.9954 1 13.4777 1 12.9379V3.77856C1 3.23874 1.21071 2.72103 1.58579 2.33932C1.96086 1.95761 2.46957 1.74316 3 1.74316H12C12.5304 1.74316 13.0391 1.95761 13.4142 2.33932C13.7893 2.72103 14 3.23874 14 3.77856V4.79626" stroke="#222222" stroke-width="2" stroke-linecap="round" stroke-linejoin="round"/>
</g>
</svg>
