<svg width="25" height="25" viewBox="0 0 25 25" fill="none" xmlns="http://www.w3.org/2000/svg">
<g id="share">
<mask id="mask0_2453_25445" style="mask-type:alpha" maskUnits="userSpaceOnUse" x="0" y="0" width="25" height="25">
<rect id="Bounding box" width="25" height="25" fill="#D9D9D9"/>
</mask>
<g mask="url(#mask0_2453_25445)">
<path id="share_2" d="M17.708 22.9163C16.84 22.9163 16.1021 22.6125 15.4945 22.0049C14.8868 21.3972 14.583 20.6594 14.583 19.7913C14.583 19.6872 14.609 19.4441 14.6611 19.0622L7.34342 14.7913C7.06565 15.0518 6.74447 15.2558 6.37988 15.4033C6.0153 15.5509 5.62467 15.6247 5.20801 15.6247C4.33995 15.6247 3.60211 15.3209 2.99447 14.7132C2.38683 14.1056 2.08301 13.3677 2.08301 12.4997C2.08301 11.6316 2.38683 10.8938 2.99447 10.2861C3.60211 9.67849 4.33995 9.37467 5.20801 9.37467C5.62467 9.37467 6.0153 9.44846 6.37988 9.59603C6.74447 9.7436 7.06565 9.94759 7.34342 10.208L14.6611 5.93717C14.6264 5.81565 14.6047 5.69846 14.596 5.58561C14.5873 5.47276 14.583 5.3469 14.583 5.20801C14.583 4.33995 14.8868 3.60211 15.4945 2.99447C16.1021 2.38683 16.84 2.08301 17.708 2.08301C18.5761 2.08301 19.3139 2.38683 19.9215 2.99447C20.5292 3.60211 20.833 4.33995 20.833 5.20801C20.833 6.07606 20.5292 6.81391 19.9215 7.42155C19.3139 8.02919 18.5761 8.33301 17.708 8.33301C17.2913 8.33301 16.9007 8.25922 16.5361 8.11165C16.1715 7.96408 15.8504 7.76009 15.5726 7.49968L8.25488 11.7705C8.28961 11.892 8.31131 12.0092 8.31999 12.1221C8.32867 12.2349 8.33301 12.3608 8.33301 12.4997C8.33301 12.6386 8.32867 12.7644 8.31999 12.8773C8.31131 12.9901 8.28961 13.1073 8.25488 13.2288L15.5726 17.4997C15.8504 17.2393 16.1715 17.0353 16.5361 16.8877C16.9007 16.7401 17.2913 16.6663 17.708 16.6663C18.5761 16.6663 19.3139 16.9702 19.9215 17.5778C20.5292 18.1854 20.833 18.9233 20.833 19.7913C20.833 20.6594 20.5292 21.3972 19.9215 22.0049C19.3139 22.6125 18.5761 22.9163 17.708 22.9163ZM17.708 20.833C18.0031 20.833 18.2505 20.7332 18.4502 20.5335C18.6498 20.3339 18.7497 20.0865 18.7497 19.7913C18.7497 19.4962 18.6498 19.2488 18.4502 19.0492C18.2505 18.8495 18.0031 18.7497 17.708 18.7497C17.4129 18.7497 17.1655 18.8495 16.9658 19.0492C16.7662 19.2488 16.6663 19.4962 16.6663 19.7913C16.6663 20.0865 16.7662 20.3339 16.9658 20.5335C17.1655 20.7332 17.4129 20.833 17.708 20.833ZM5.20801 13.5413C5.50315 13.5413 5.75054 13.4415 5.9502 13.2419C6.14985 13.0422 6.24967 12.7948 6.24967 12.4997C6.24967 12.2045 6.14985 11.9571 5.9502 11.7575C5.75054 11.5578 5.50315 11.458 5.20801 11.458C4.91287 11.458 4.66547 11.5578 4.46582 11.7575C4.26617 11.9571 4.16634 12.2045 4.16634 12.4997C4.16634 12.7948 4.26617 13.0422 4.46582 13.2419C4.66547 13.4415 4.91287 13.5413 5.20801 13.5413ZM17.708 6.24967C18.0031 6.24967 18.2505 6.14985 18.4502 5.9502C18.6498 5.75054 18.7497 5.50315 18.7497 5.20801C18.7497 4.91287 18.6498 4.66547 18.4502 4.46582C18.2505 4.26617 18.0031 4.16634 17.708 4.16634C17.4129 4.16634 17.1655 4.26617 16.9658 4.46582C16.7662 4.66547 16.6663 4.91287 16.6663 5.20801C16.6663 5.50315 16.7662 5.75054 16.9658 5.9502C17.1655 6.14985 17.4129 6.24967 17.708 6.24967Z" fill="#404040"/>
</g>
</g>
</svg>
