<svg width="30" height="30" viewBox="0 0 30 30" fill="none" xmlns="http://www.w3.org/2000/svg">
<path id="edit" d="M2.77792 27.2215H4.79167L23.3333 8.70776L21.3196 6.69401L2.77792 25.2078V27.2215ZM0 29.9994V24.0828L23.3054 0.81901C23.5649 0.56901 23.8635 0.374566 24.2013 0.235677C24.5393 0.0967882 24.8935 0.0273438 25.2638 0.0273438C25.6157 0.0273438 25.9629 0.0967882 26.3054 0.235677C26.6482 0.374566 26.9538 0.573595 27.2221 0.832761L29.2083 2.83276C29.4861 3.10137 29.6875 3.40693 29.8125 3.74943C29.9375 4.09193 30 4.43457 30 4.77734C30 5.12901 29.9329 5.47846 29.7987 5.82568C29.6643 6.1729 29.4675 6.47623 29.2083 6.73568L5.91667 29.9994H0ZM22.3196 7.70776L21.3196 6.69401L23.3333 8.70776L22.3196 7.70776Z" fill="#404040"/>
</svg>
