<svg width="100" height="100" viewBox="0 0 100 100" fill="none" xmlns="http://www.w3.org/2000/svg">
<g id="Frame 1">
<g id="account_balance_wallet">
<mask id="mask0_411_8175" style="mask-type:alpha" maskUnits="userSpaceOnUse" x="4" y="33" width="35" height="40">
<rect id="Bounding box" x="4" y="33" width="34.5455" height="40" fill="#D9D9D9"/>
</mask>
<g mask="url(#mask0_411_8175)">
<path id="account_balance_wallet_2" d="M11.1971 68C10.4055 68 9.72777 67.6736 9.164 67.0208C8.60024 66.3681 8.31836 65.5833 8.31836 64.6667V41.3333C8.31836 40.4167 8.60024 39.6319 9.164 38.9792C9.72777 38.3264 10.4055 38 11.1971 38H31.3487C32.1403 38 32.818 38.3264 33.3818 38.9792C33.9456 39.6319 34.2275 40.4167 34.2275 41.3333V45.5H31.3487V41.3333H11.1971V64.6667H31.3487V60.5H34.2275V64.6667C34.2275 65.5833 33.9456 66.3681 33.3818 67.0208C32.818 67.6736 32.1403 68 31.3487 68H11.1971ZM22.7123 61.3333C21.9206 61.3333 21.2429 61.0069 20.6792 60.3542C20.1154 59.7014 19.8335 58.9167 19.8335 58V48C19.8335 47.0833 20.1154 46.2986 20.6792 45.6458C21.2429 44.9931 21.9206 44.6667 22.7123 44.6667H32.7881C33.5797 44.6667 34.2574 44.9931 34.8212 45.6458C35.385 46.2986 35.6668 47.0833 35.6668 48V58C35.6668 58.9167 35.385 59.7014 34.8212 60.3542C34.2574 61.0069 33.5797 61.3333 32.7881 61.3333H22.7123ZM32.7881 58V48H22.7123V58H32.7881ZM27.0305 55.5C27.6302 55.5 28.14 55.2569 28.5598 54.7708C28.9797 54.2847 29.1896 53.6944 29.1896 53C29.1896 52.3056 28.9797 51.7153 28.5598 51.2292C28.14 50.7431 27.6302 50.5 27.0305 50.5C26.4307 50.5 25.9209 50.7431 25.5011 51.2292C25.0813 51.7153 24.8714 52.3056 24.8714 53C24.8714 53.6944 25.0813 54.2847 25.5011 54.7708C25.9209 55.2569 26.4307 55.5 27.0305 55.5Z" fill="#1C1B1F"/>
</g>
</g>
</g>
</svg>
