<svg width="25" height="25" viewBox="0 0 25 25" fill="none" xmlns="http://www.w3.org/2000/svg">
<g id="mail">
<mask id="mask0_91_7828" style="mask-type:alpha" maskUnits="userSpaceOnUse" x="0" y="0" width="25" height="25">
<rect id="Bounding box" x="0.253906" y="0.0625" width="24" height="24" fill="#D9D9D9"/>
</mask>
<g mask="url(#mask0_91_7828)">
<path id="mail_2" d="M4.25391 20.0625C3.70391 20.0625 3.23307 19.8667 2.84141 19.475C2.44974 19.0833 2.25391 18.6125 2.25391 18.0625V6.0625C2.25391 5.5125 2.44974 5.04167 2.84141 4.65C3.23307 4.25833 3.70391 4.0625 4.25391 4.0625H20.2539C20.8039 4.0625 21.2747 4.25833 21.6664 4.65C22.0581 5.04167 22.2539 5.5125 22.2539 6.0625V18.0625C22.2539 18.6125 22.0581 19.0833 21.6664 19.475C21.2747 19.8667 20.8039 20.0625 20.2539 20.0625H4.25391ZM12.2539 13.0625L4.25391 8.0625V18.0625H20.2539V8.0625L12.2539 13.0625ZM12.2539 11.0625L20.2539 6.0625H4.25391L12.2539 11.0625ZM4.25391 8.0625V6.0625V18.0625V8.0625Z" fill="#1C1B1F" fill-opacity="0.5"/>
</g>
</g>
</svg>
