<svg width="50" height="50" viewBox="0 0 50 50" fill="none" xmlns="http://www.w3.org/2000/svg">
<g id="sentiment_satisfied">
<mask id="mask0_91_6400" style="mask-type:alpha" maskUnits="userSpaceOnUse" x="0" y="0" width="50" height="50">
<rect id="Bounding box" width="50" height="50" fill="#D9D9D9"/>
</mask>
<g mask="url(#mask0_91_6400)">
<path id="sentiment_satisfied_2" d="M32.2919 22.916C33.1599 22.916 33.8978 22.6122 34.5054 22.0046C35.1131 21.3969 35.4169 20.6591 35.4169 19.791C35.4169 18.923 35.1131 18.1851 34.5054 17.5775C33.8978 16.9698 33.1599 16.666 32.2919 16.666C31.4238 16.666 30.686 16.9698 30.0783 17.5775C29.4707 18.1851 29.1669 18.923 29.1669 19.791C29.1669 20.6591 29.4707 21.3969 30.0783 22.0046C30.686 22.6122 31.4238 22.916 32.2919 22.916ZM17.7085 22.916C18.5766 22.916 19.3144 22.6122 19.9221 22.0046C20.5297 21.3969 20.8335 20.6591 20.8335 19.791C20.8335 18.923 20.5297 18.1851 19.9221 17.5775C19.3144 16.9698 18.5766 16.666 17.7085 16.666C16.8405 16.666 16.1026 16.9698 15.495 17.5775C14.8874 18.1851 14.5835 18.923 14.5835 19.791C14.5835 20.6591 14.8874 21.3969 15.495 22.0046C16.1026 22.6122 16.8405 22.916 17.7085 22.916ZM25.0002 36.4577C27.3613 36.4577 29.5054 35.7893 31.4325 34.4525C33.3596 33.1157 34.7571 31.3535 35.6252 29.166H32.1877C31.4238 30.4507 30.4082 31.4664 29.1408 32.2129C27.8735 32.9594 26.4933 33.3327 25.0002 33.3327C23.5071 33.3327 22.1269 32.9594 20.8596 32.2129C19.5922 31.4664 18.5766 30.4507 17.8127 29.166H14.3752C15.2433 31.3535 16.6408 33.1157 18.5679 34.4525C20.495 35.7893 22.6391 36.4577 25.0002 36.4577ZM25.0002 45.8327C22.1183 45.8327 19.4099 45.2858 16.8752 44.1921C14.3405 43.0983 12.1356 41.6139 10.2606 39.7389C8.38562 37.8639 6.90125 35.6591 5.8075 33.1243C4.71375 30.5896 4.16687 27.8813 4.16687 24.9993C4.16687 22.1174 4.71375 19.4091 5.8075 16.8743C6.90125 14.3396 8.38562 12.1348 10.2606 10.2598C12.1356 8.38477 14.3405 6.90039 16.8752 5.80664C19.4099 4.71289 22.1183 4.16602 25.0002 4.16602C27.8821 4.16602 30.5905 4.71289 33.1252 5.80664C35.6599 6.90039 37.8648 8.38477 39.7398 10.2598C41.6148 12.1348 43.0992 14.3396 44.1929 16.8743C45.2867 19.4091 45.8335 22.1174 45.8335 24.9993C45.8335 27.8813 45.2867 30.5896 44.1929 33.1243C43.0992 35.6591 41.6148 37.8639 39.7398 39.7389C37.8648 41.6139 35.6599 43.0983 33.1252 44.1921C30.5905 45.2858 27.8821 45.8327 25.0002 45.8327ZM25.0002 41.666C29.653 41.666 33.594 40.0514 36.8231 36.8223C40.0523 33.5931 41.6669 29.6521 41.6669 24.9993C41.6669 20.3466 40.0523 16.4056 36.8231 13.1764C33.594 9.94727 29.653 8.33268 25.0002 8.33268C20.3474 8.33268 16.4065 9.94727 13.1773 13.1764C9.94812 16.4056 8.33354 20.3466 8.33354 24.9993C8.33354 29.6521 9.94812 33.5931 13.1773 36.8223C16.4065 40.0514 20.3474 41.666 25.0002 41.666Z" fill="#8E8E93"/>
</g>
</g>
</svg>
