<svg width="41" height="41" viewBox="0 0 41 41" fill="none" xmlns="http://www.w3.org/2000/svg">
<g id="sentiment_satisfied">
<mask id="mask0_91_7718" style="mask-type:alpha" maskUnits="userSpaceOnUse" x="0" y="0" width="41" height="41">
<rect id="Bounding box" width="41" height="41" fill="#D9D9D9"/>
</mask>
<g mask="url(#mask0_91_7718)">
<path id="sentiment_satisfied_2" d="M26.4785 18.791C27.1903 18.791 27.7954 18.5419 28.2936 18.0436C28.7919 17.5454 29.041 16.9403 29.041 16.2285C29.041 15.5167 28.7919 14.9117 28.2936 14.4134C27.7954 13.9151 27.1903 13.666 26.4785 13.666C25.7667 13.666 25.1617 13.9151 24.6634 14.4134C24.1651 14.9117 23.916 15.5167 23.916 16.2285C23.916 16.9403 24.1651 17.5454 24.6634 18.0436C25.1617 18.5419 25.7667 18.791 26.4785 18.791ZM14.5202 18.791C15.232 18.791 15.837 18.5419 16.3353 18.0436C16.8336 17.5454 17.0827 16.9403 17.0827 16.2285C17.0827 15.5167 16.8336 14.9117 16.3353 14.4134C15.837 13.9151 15.232 13.666 14.5202 13.666C13.8084 13.666 13.2033 13.9151 12.7051 14.4134C12.2068 14.9117 11.9577 15.5167 11.9577 16.2285C11.9577 16.9403 12.2068 17.5454 12.7051 18.0436C13.2033 18.5419 13.8084 18.791 14.5202 18.791ZM20.4993 29.8952C22.4355 29.8952 24.1936 29.3471 25.7738 28.2509C27.354 27.1547 28.5 25.7098 29.2119 23.916H26.3931C25.7667 24.9695 24.9339 25.8023 23.8947 26.4145C22.8554 27.0266 21.7237 27.3327 20.4993 27.3327C19.275 27.3327 18.1433 27.0266 17.104 26.4145C16.0648 25.8023 15.232 24.9695 14.6056 23.916H11.7868C12.4987 25.7098 13.6447 27.1547 15.2249 28.2509C16.8051 29.3471 18.5632 29.8952 20.4993 29.8952ZM20.4993 37.5827C18.1362 37.5827 15.9153 37.1342 13.8368 36.2374C11.7584 35.3405 9.95039 34.1233 8.41289 32.5858C6.87539 31.0483 5.6582 29.2403 4.76133 27.1618C3.86445 25.0834 3.41602 22.8625 3.41602 20.4993C3.41602 18.1362 3.86445 15.9153 4.76133 13.8368C5.6582 11.7584 6.87539 9.95039 8.41289 8.41289C9.95039 6.87539 11.7584 5.6582 13.8368 4.76133C15.9153 3.86445 18.1362 3.41602 20.4993 3.41602C22.8625 3.41602 25.0834 3.86445 27.1618 4.76133C29.2403 5.6582 31.0483 6.87539 32.5858 8.41289C34.1233 9.95039 35.3405 11.7584 36.2374 13.8368C37.1342 15.9153 37.5827 18.1362 37.5827 20.4993C37.5827 22.8625 37.1342 25.0834 36.2374 27.1618C35.3405 29.2403 34.1233 31.0483 32.5858 32.5858C31.0483 34.1233 29.2403 35.3405 27.1618 36.2374C25.0834 37.1342 22.8625 37.5827 20.4993 37.5827ZM20.4993 34.166C24.3146 34.166 27.5462 32.8421 30.1941 30.1941C32.8421 27.5462 34.166 24.3146 34.166 20.4993C34.166 16.6841 32.8421 13.4525 30.1941 10.8046C27.5462 8.15664 24.3146 6.83268 20.4993 6.83268C16.6841 6.83268 13.4525 8.15664 10.8046 10.8046C8.15664 13.4525 6.83268 16.6841 6.83268 20.4993C6.83268 24.3146 8.15664 27.5462 10.8046 30.1941C13.4525 32.8421 16.6841 34.166 20.4993 34.166Z" fill="#875CFF"/>
</g>
</g>
</svg>
