<svg width="60" height="60" viewBox="0 0 60 60" fill="none" xmlns="http://www.w3.org/2000/svg">
<g id="sentiment_dissatisfied">
<mask id="mask0_91_8494" style="mask-type:alpha" maskUnits="userSpaceOnUse" x="0" y="0" width="60" height="60">
<rect id="Bounding box" width="60" height="60" fill="#D9D9D9"/>
</mask>
<g mask="url(#mask0_91_8494)">
<path id="sentiment_dissatisfied_2" d="M38.75 27.5C39.7917 27.5 40.6771 27.1354 41.4062 26.4062C42.1354 25.6771 42.5 24.7917 42.5 23.75C42.5 22.7083 42.1354 21.8229 41.4062 21.0938C40.6771 20.3646 39.7917 20 38.75 20C37.7083 20 36.8229 20.3646 36.0938 21.0938C35.3646 21.8229 35 22.7083 35 23.75C35 24.7917 35.3646 25.6771 36.0938 26.4062C36.8229 27.1354 37.7083 27.5 38.75 27.5ZM21.25 27.5C22.2917 27.5 23.1771 27.1354 23.9062 26.4062C24.6354 25.6771 25 24.7917 25 23.75C25 22.7083 24.6354 21.8229 23.9062 21.0938C23.1771 20.3646 22.2917 20 21.25 20C20.2083 20 19.3229 20.3646 18.5938 21.0938C17.8646 21.8229 17.5 22.7083 17.5 23.75C17.5 24.7917 17.8646 25.6771 18.5938 26.4062C19.3229 27.1354 20.2083 27.5 21.25 27.5ZM30 33.75C27.1667 33.75 24.5938 34.5521 22.2812 36.1563C19.9688 37.7604 18.2917 39.875 17.25 42.5H21.375C22.2917 40.9583 23.5104 39.7396 25.0312 38.8438C26.5521 37.9479 28.2083 37.5 30 37.5C31.7917 37.5 33.4479 37.9479 34.9688 38.8438C36.4896 39.7396 37.7083 40.9583 38.625 42.5H42.75C41.7083 39.875 40.0312 37.7604 37.7188 36.1563C35.4063 34.5521 32.8333 33.75 30 33.75ZM30 55C26.5417 55 23.2917 54.3438 20.25 53.0312C17.2083 51.7188 14.5625 49.9375 12.3125 47.6875C10.0625 45.4375 8.28125 42.7917 6.96875 39.75C5.65625 36.7083 5 33.4583 5 30C5 26.5417 5.65625 23.2917 6.96875 20.25C8.28125 17.2083 10.0625 14.5625 12.3125 12.3125C14.5625 10.0625 17.2083 8.28125 20.25 6.96875C23.2917 5.65625 26.5417 5 30 5C33.4583 5 36.7083 5.65625 39.75 6.96875C42.7917 8.28125 45.4375 10.0625 47.6875 12.3125C49.9375 14.5625 51.7188 17.2083 53.0312 20.25C54.3438 23.2917 55 26.5417 55 30C55 33.4583 54.3438 36.7083 53.0312 39.75C51.7188 42.7917 49.9375 45.4375 47.6875 47.6875C45.4375 49.9375 42.7917 51.7188 39.75 53.0312C36.7083 54.3438 33.4583 55 30 55ZM30 50C35.5833 50 40.3125 48.0625 44.1875 44.1875C48.0625 40.3125 50 35.5833 50 30C50 24.4167 48.0625 19.6875 44.1875 15.8125C40.3125 11.9375 35.5833 10 30 10C24.4167 10 19.6875 11.9375 15.8125 15.8125C11.9375 19.6875 10 24.4167 10 30C10 35.5833 11.9375 40.3125 15.8125 44.1875C19.6875 48.0625 24.4167 50 30 50Z" fill="#1C1B1F"/>
</g>
</g>
</svg>
