<svg width="16" height="16" viewBox="0 0 16 16" fill="none" xmlns="http://www.w3.org/2000/svg">
<path id="Vector" d="M14.6795 1.32194C12.9171 -0.440647 10.0651 -0.440647 8.3048 1.32194L6.28615 3.34079L7.3486 4.40334L9.36725 2.38449C10.488 1.2636 12.3796 1.14485 13.617 2.38449C14.8566 3.62414 14.7378 5.51381 13.617 6.6347L11.5984 8.65355L12.6629 9.71818L14.6816 7.69933C16.4398 5.93675 16.4398 3.08453 14.6795 1.32194ZM6.63614 13.6184C5.51536 14.7393 3.62378 14.858 2.38634 13.6184C1.14682 12.3787 1.26556 10.4891 2.38634 9.36817L4.40499 7.34932L3.34046 6.28468L1.32181 8.30353C-0.440604 10.0661 -0.440604 12.9183 1.32181 14.6788C3.08422 16.4393 5.93617 16.4414 7.6965 14.6788L9.71515 12.66L8.6527 11.5974L6.63614 13.6184ZM2.75716 1.69696C2.72583 1.66594 2.68354 1.64854 2.63945 1.64854C2.59537 1.64854 2.55308 1.66594 2.52175 1.69696L1.69679 2.522C1.66578 2.55332 1.64838 2.59563 1.64838 2.63971C1.64838 2.6838 1.66578 2.7261 1.69679 2.75743L13.2462 14.308C13.3108 14.3726 13.4171 14.3726 13.4816 14.308L14.3066 13.4829C14.3712 13.4184 14.3712 13.3121 14.3066 13.2475L2.75716 1.69696Z" fill="black" fill-opacity="0.5"/>
</svg>
