<svg width="50" height="30" viewBox="0 0 50 30" fill="none" xmlns="http://www.w3.org/2000/svg">
<path id="Race Track" fill-rule="evenodd" clip-rule="evenodd" d="M15.5461 0.0891791C17.252 -0.00759461 18.9559 0.000147289 20.6618 0.000147289C20.6735 0.000147289 29.3059 0.000147289 29.3059 0.000147289C31.0451 0.000147289 32.749 -0.00759461 34.4539 0.0891791C36.0039 0.176275 37.5137 0.362081 39.0167 0.77724C42.1804 1.65014 44.9431 3.47336 46.9402 6.05818C48.9255 8.62656 50 11.7707 50 14.9991C50 18.2313 48.9255 21.3736 46.9402 23.942C44.9431 26.5258 42.1804 28.35 39.0167 29.2229C37.5137 29.6381 36.0039 29.8229 34.4539 29.911C32.749 30.0077 31.0451 29.999 29.3392 29.999C29.3275 29.999 20.6931 30 20.6931 30C18.9559 29.999 17.252 30.0077 15.5461 29.911C13.9971 29.8229 12.4873 29.6381 10.9843 29.2229C7.82059 28.35 5.05784 26.5258 3.06078 23.942C1.07549 21.3736 0 18.2313 0 15.0001C0 11.7707 1.07549 8.62656 3.06078 6.05818C5.05784 3.47336 7.82059 1.65014 10.9843 0.77724C12.4873 0.362081 13.9971 0.176275 15.5461 0.0891791Z" fill="#BBC5CC"/>
</svg>
